<svg xmlns="http://www.w3.org/2000/svg" width="223.224" height="48.992" viewBox="0 0 223.224 48.992"><g transform="translate(-134.694 -1315.928)"><g transform="translate(323.688 1346.84) rotate(-135)" fill="none" stroke="#fff" stroke-width="1"><rect width="8.55" height="8.55" stroke="none"/><rect x="0.5" y="0.5" width="7.55" height="7.55" fill="none"/></g><g transform="translate(320.168 1346.84) rotate(-135)" fill="none" stroke="#fff" stroke-width="1"><rect width="8.55" height="8.55" stroke="none"/><rect x="0.5" y="0.5" width="7.55" height="7.55" fill="none"/></g><line x2="18" transform="translate(296.5 1340.75)" fill="none" stroke="#fff" stroke-linecap="square" stroke-width="1"/><g transform="translate(135 1315.936)" fill="none"><path d="M-.306-.008H207.586l15.332,15.262v33.73l-207.891,0L0,34.156H0V13.44Z" stroke="none"/><path d="M 0.717315673828125 0.9921836853027344 L 0.999725341796875 13.41768646240234 L 0.9999847412109375 13.42906951904297 L 0.9999847412109375 13.44042205810547 L 0.9999847412109375 33.73804473876953 L 15.43757629394531 47.98048782348633 L 221.9179840087891 47.98393249511719 L 221.9179840087891 15.66944885253906 L 207.1730651855469 0.9921836853027344 L 0.717315673828125 0.9921836853027344 M -0.3056640625 -0.007816314697265625 L 207.5859222412109 -0.007816314697265625 L 222.9179840087891 15.25389099121094 L 222.9179840087891 48.98395156860352 L 15.02734375 48.9804801940918 L -1.52587890625e-05 34.15624237060547 L -1.52587890625e-05 13.44042205810547 L -0.3056640625 -0.007816314697265625 Z" stroke="none" fill="#c28f2d"/></g></g></svg>