<svg xmlns="http://www.w3.org/2000/svg" width="245.948" height="221.749" viewBox="0 0 245.948 221.749">
  <g id="Groupe_179" data-name="Groupe 179" transform="translate(1507.833 495.7) rotate(180)">
    <g id="Groupe_58" data-name="Groupe 58" transform="translate(1261.885 376.245)">
      <path id="Tracé_44" data-name="Tracé 44" d="M1270.461,313.211l-8.576-8.575,8.576-8.58,8.575,8.58Zm-5.3-8.575,5.3,5.3,5.3-5.3-5.3-5.308Z" transform="translate(-1261.885 -296.055)" fill="#c28f2d"/>
    </g>
    <g id="Groupe_59" data-name="Groupe 59" transform="translate(1490.677 376.245)">
      <path id="Tracé_45" data-name="Tracé 45" d="M1319.9,313.211l-8.58-8.575,8.58-8.58,8.575,8.58Zm-5.308-8.575,5.308,5.3,5.3-5.3-5.3-5.308Z" transform="translate(-1311.324 -296.055)" fill="#c28f2d"/>
    </g>
    <g id="Groupe_62" data-name="Groupe 62" transform="translate(1286.417 286.256)">
      <g id="Groupe_60" data-name="Groupe 60" transform="translate(0 103.581)">
        <path id="Tracé_46" data-name="Tracé 46" d="M1365.625,392.549a98.471,98.471,0,0,1-98.439-93.5l1.157-.06a97.31,97.31,0,0,0,97.282,92.4Z" transform="translate(-1267.187 -298.992)" fill="#c28f2d"/>
      </g>
      <g id="Groupe_61" data-name="Groupe 61">
        <path id="Tracé_47" data-name="Tracé 47" d="M1268.343,370.167l-1.157-.06a98.467,98.467,0,0,1,98.439-93.5v1.157A97.31,97.31,0,0,0,1268.343,370.167Z" transform="translate(-1267.187 -276.61)" fill="#c28f2d"/>
      </g>
    </g>
    <g id="Groupe_63" data-name="Groupe 63" transform="translate(1274.958 273.951)">
      <path id="Tracé_48" data-name="Tracé 48" d="M1374.608,495.7c-54.8,0-101.984-40.846-109.745-95.01l-.153-1.083,3.105-3.4c4.91-5.378,4.91-5.378,5.567-6.109l4.781-5.276-4.776-5.271c-.648-.722-.648-.722-5.313-5.827l-3.364-3.688.153-1.083c7.76-54.16,54.942-95.006,109.745-95.006s101.984,40.846,109.75,95.006l.152,1.083-3.082,3.374c-4.933,5.4-4.933,5.4-5.59,6.132l-4.781,5.276c3.461,3.818,4.3,4.748,4.785,5.29.661.736.661.736,5.844,6.4l2.823,3.091-.152,1.083C1476.593,454.854,1429.411,495.7,1374.608,495.7ZM1269.6,401.111c7.905,51.365,52.855,89.961,105.007,89.961s97.1-38.6,105.011-89.961l-1.346-1.472c-5.206-5.7-5.206-5.7-5.873-6.437-.542-.606-1.527-1.7-6.178-6.822l-1.417-1.555,7.59-8.376c.661-.731.661-.731,5.618-6.155l1.606-1.754c-7.9-51.365-52.854-89.961-105.011-89.961s-97.1,38.6-105.007,89.961l1.889,2.064c4.688,5.128,4.688,5.128,5.335,5.854l7.585,8.367-7.589,8.372c-.657.731-.657.731-5.591,6.127Z" transform="translate(-1264.71 -273.951)" fill="#c28f2d"/>
    </g>
    <g id="Groupe_66" data-name="Groupe 66" transform="translate(1384.857 286.256)">
      <g id="Groupe_64" data-name="Groupe 64" transform="translate(0 103.581)">
        <path id="Tracé_49" data-name="Tracé 49" d="M1288.457,392.549v-1.157a97.317,97.317,0,0,0,97.287-92.4l1.157.06A98.475,98.475,0,0,1,1288.457,392.549Z" transform="translate(-1288.457 -298.992)" fill="#c28f2d"/>
      </g>
      <g id="Groupe_65" data-name="Groupe 65">
        <path id="Tracé_50" data-name="Tracé 50" d="M1385.744,370.167a97.317,97.317,0,0,0-97.287-92.4V276.61a98.472,98.472,0,0,1,98.444,93.5Z" transform="translate(-1288.457 -276.61)" fill="#c28f2d"/>
      </g>
    </g>
    <g id="Groupe_67" data-name="Groupe 67" transform="translate(1299.341 384.246)">
      <rect id="Rectangle_315" data-name="Rectangle 315" width="11.448" height="1.157" fill="#c28f2d"/>
    </g>
    <g id="Groupe_70" data-name="Groupe 70" transform="translate(1299.343 384.247)">
      <g id="Groupe_68" data-name="Groupe 68">
        <path id="Tracé_51" data-name="Tracé 51" d="M1285.6,297.784h-15.624v1.157h15.679C1285.653,298.552,1285.6,298.173,1285.6,297.784Z" transform="translate(-1269.979 -297.784)" fill="#c28f2d"/>
      </g>
      <g id="Groupe_69" data-name="Groupe 69" transform="translate(154.191)">
        <path id="Tracé_52" data-name="Tracé 52" d="M1303.352,297.784c0,.389-.051.768-.055,1.157h16.841v-1.157Z" transform="translate(-1303.297 -297.784)" fill="#c28f2d"/>
      </g>
    </g>
    <g id="Groupe_73" data-name="Groupe 73" transform="translate(1299.343 384.247)">
      <g id="Groupe_71" data-name="Groupe 71">
        <path id="Tracé_53" data-name="Tracé 53" d="M1285.6,297.784h-15.624v1.157h15.684C1285.653,298.552,1285.6,298.173,1285.6,297.784Z" transform="translate(-1269.979 -297.784)" fill="#c28f2d"/>
      </g>
      <g id="Groupe_72" data-name="Groupe 72" transform="translate(154.191)">
        <path id="Tracé_54" data-name="Tracé 54" d="M1303.358,297.784c0,.389-.056.768-.061,1.157h16.841v-1.157Z" transform="translate(-1303.297 -297.784)" fill="#c28f2d"/>
      </g>
    </g>
    <g id="Groupe_76" data-name="Groupe 76" transform="translate(1299.616 376.796)">
      <g id="Groupe_74" data-name="Groupe 74" transform="translate(0 13.541)">
        <path id="Tracé_55" data-name="Tracé 55" d="M1285.606,299.1l-15.568,1.365.1,1.152,15.623-1.37C1285.723,299.864,1285.639,299.493,1285.606,299.1Z" transform="translate(-1270.039 -299.1)" fill="#c28f2d"/>
      </g>
      <g id="Groupe_75" data-name="Groupe 75" transform="translate(153.664)">
        <path id="Tracé_56" data-name="Tracé 56" d="M1303.242,297.636c.037.389.014.768.042,1.157l16.776-1.467-.1-1.152Z" transform="translate(-1303.242 -296.174)" fill="#c28f2d"/>
      </g>
    </g>
    <g id="Groupe_79" data-name="Groupe 79" transform="translate(1300.542 369.405)">
      <g id="Groupe_77" data-name="Groupe 77" transform="translate(0 26.985)">
        <path id="Tracé_57" data-name="Tracé 57" d="M1285.626,300.408l-15.387,2.712.2,1.143,15.448-2.726C1285.811,301.158,1285.691,300.792,1285.626,300.408Z" transform="translate(-1270.239 -300.408)" fill="#c28f2d"/>
      </g>
      <g id="Groupe_78" data-name="Groupe 78" transform="translate(151.905)">
        <path id="Tracé_58" data-name="Tracé 58" d="M1303.062,297.493c.069.384.083.764.143,1.148l16.586-2.925-.2-1.139Z" transform="translate(-1303.062 -294.577)" fill="#c28f2d"/>
      </g>
    </g>
    <g id="Groupe_82" data-name="Groupe 82" transform="translate(1302.106 362.13)">
      <g id="Groupe_80" data-name="Groupe 80" transform="translate(0 40.225)">
        <path id="Tracé_59" data-name="Tracé 59" d="M1285.667,301.7l-15.092,4.045.3,1.115,15.147-4.059C1285.917,302.424,1285.769,302.072,1285.667,301.7Z" transform="translate(-1270.576 -301.697)" fill="#c28f2d"/>
      </g>
      <g id="Groupe_81" data-name="Groupe 81" transform="translate(148.994)">
        <path id="Tracé_60" data-name="Tracé 60" d="M1302.771,297.351c.1.375.148.754.245,1.134l16.262-4.359-.3-1.12Z" transform="translate(-1302.771 -293.005)" fill="#c28f2d"/>
      </g>
    </g>
    <g id="Groupe_85" data-name="Groupe 85" transform="translate(1304.299 355.031)">
      <g id="Groupe_83" data-name="Groupe 83" transform="translate(0 53.156)">
        <path id="Tracé_61" data-name="Tracé 61" d="M1285.735,302.957l-14.684,5.341.4,1.088,14.735-5.364C1286.045,303.661,1285.868,303.323,1285.735,302.957Z" transform="translate(-1271.051 -302.957)" fill="#c28f2d"/>
      </g>
      <g id="Groupe_84" data-name="Groupe 84" transform="translate(144.949)">
        <path id="Tracé_62" data-name="Tracé 62" d="M1302.371,297.21c.134.37.213.741.342,1.111l15.823-5.762-.393-1.088Z" transform="translate(-1302.371 -291.471)" fill="#c28f2d"/>
      </g>
    </g>
    <g id="Groupe_88" data-name="Groupe 88" transform="translate(1307.108 348.159)">
      <g id="Groupe_86" data-name="Groupe 86" transform="translate(0 65.679)">
        <path id="Tracé_63" data-name="Tracé 63" d="M1285.819,304.178l-14.162,6.6.49,1.046,14.213-6.627C1286.189,304.854,1285.985,304.53,1285.819,304.178Z" transform="translate(-1271.657 -304.178)" fill="#c28f2d"/>
      </g>
      <g id="Groupe_87" data-name="Groupe 87" transform="translate(139.799)">
        <path id="Tracé_64" data-name="Tracé 64" d="M1301.865,297.081c.167.352.278.717.435,1.069l15.263-7.113-.486-1.051Z" transform="translate(-1301.865 -289.986)" fill="#c28f2d"/>
      </g>
    </g>
    <g id="Groupe_91" data-name="Groupe 91" transform="translate(1310.51 341.564)">
      <g id="Groupe_89" data-name="Groupe 89" transform="translate(0 77.706)">
        <path id="Tracé_65" data-name="Tracé 65" d="M1285.925,305.352l-13.532,7.812.578,1,13.583-7.839C1286.355,305.991,1286.119,305.69,1285.925,305.352Z" transform="translate(-1272.393 -305.352)" fill="#c28f2d"/>
      </g>
      <g id="Groupe_90" data-name="Groupe 90" transform="translate(133.583)">
        <path id="Tracé_66" data-name="Tracé 66" d="M1301.257,296.951c.195.338.338.694.528,1.032l14.587-8.418-.579-1Z" transform="translate(-1301.257 -288.561)" fill="#c28f2d"/>
      </g>
    </g>
    <g id="Groupe_94" data-name="Groupe 94" transform="translate(1314.476 335.298)">
      <g id="Groupe_92" data-name="Groupe 92" transform="translate(0 89.142)">
        <path id="Tracé_67" data-name="Tracé 67" d="M1286.046,306.469l-12.8,8.96.661.949,12.847-9C1286.531,307.066,1286.272,306.788,1286.046,306.469Z" transform="translate(-1273.25 -306.469)" fill="#c28f2d"/>
      </g>
      <g id="Groupe_93" data-name="Groupe 93" transform="translate(126.355)">
        <path id="Tracé_68" data-name="Tracé 68" d="M1300.552,296.833c.223.324.4.662.617.981l13.8-9.658-.667-.949Z" transform="translate(-1300.552 -287.207)" fill="#c28f2d"/>
      </g>
    </g>
    <g id="Groupe_97" data-name="Groupe 97" transform="translate(1318.979 329.411)">
      <g id="Groupe_95" data-name="Groupe 95" transform="translate(0 99.897)">
        <path id="Tracé_69" data-name="Tracé 69" d="M1286.19,307.521l-11.968,10.043.74.884,12.015-10.079C1286.722,308.072,1286.44,307.817,1286.19,307.521Z" transform="translate(-1274.222 -307.521)" fill="#c28f2d"/>
      </g>
      <g id="Groupe_96" data-name="Groupe 96" transform="translate(118.159)">
        <path id="Tracé_70" data-name="Tracé 70" d="M1299.754,296.723c.254.3.458.62.7.926l12.9-10.825-.745-.889Z" transform="translate(-1299.754 -285.935)" fill="#c28f2d"/>
      </g>
    </g>
    <g id="Groupe_100" data-name="Groupe 100" transform="translate(1323.981 323.946)">
      <g id="Groupe_98" data-name="Groupe 98" transform="translate(0 109.889)">
        <path id="Tracé_71" data-name="Tracé 71" d="M1286.35,308.5,1275.3,319.551l.814.814,11.093-11.088C1286.928,309.008,1286.628,308.777,1286.35,308.5Z" transform="translate(-1275.303 -308.499)" fill="#c28f2d"/>
      </g>
      <g id="Groupe_99" data-name="Groupe 99" transform="translate(109.07)">
        <path id="Tracé_72" data-name="Tracé 72" d="M1298.872,296.62c.278.278.5.579.777.861l11.908-11.908-.82-.819Z" transform="translate(-1298.872 -284.754)" fill="#c28f2d"/>
      </g>
    </g>
    <g id="Groupe_103" data-name="Groupe 103" transform="translate(1329.447 318.943)">
      <g id="Groupe_101" data-name="Groupe 101" transform="translate(0 119.047)">
        <path id="Tracé_73" data-name="Tracé 73" d="M1286.527,309.4l-10.043,11.972.885.74,10.084-12.014C1287.147,309.851,1286.827,309.652,1286.527,309.4Z" transform="translate(-1276.484 -309.397)" fill="#c28f2d"/>
      </g>
      <g id="Groupe_102" data-name="Groupe 102" transform="translate(99.147)">
        <path id="Tracé_74" data-name="Tracé 74" d="M1297.909,296.529c.3.25.555.532.852.787l10.824-12.9-.888-.745Z" transform="translate(-1297.909 -283.673)" fill="#c28f2d"/>
      </g>
    </g>
    <g id="Groupe_106" data-name="Groupe 106" transform="translate(1335.334 314.44)">
      <g id="Groupe_104" data-name="Groupe 104" transform="translate(0 127.303)">
        <path id="Tracé_75" data-name="Tracé 75" d="M1286.72,310.208l-8.965,12.8.949.662,9-12.847C1287.377,310.606,1287.039,310.43,1286.72,310.208Z" transform="translate(-1277.756 -310.208)" fill="#c28f2d"/>
      </g>
      <g id="Groupe_105" data-name="Groupe 105" transform="translate(88.476)">
        <path id="Tracé_76" data-name="Tracé 76" d="M1296.874,296.449c.32.222.6.481.912.708l9.663-13.791-.949-.666Z" transform="translate(-1296.874 -282.7)" fill="#c28f2d"/>
      </g>
    </g>
    <g id="Groupe_109" data-name="Groupe 109" transform="translate(1341.6 310.474)">
      <g id="Groupe_107" data-name="Groupe 107" transform="translate(0 134.588)">
        <path id="Tracé_77" data-name="Tracé 77" d="M1286.922,310.925l-7.812,13.532,1,.578,7.844-13.583C1287.612,311.263,1287.26,311.12,1286.922,310.925Z" transform="translate(-1279.11 -310.925)" fill="#c28f2d"/>
      </g>
      <g id="Groupe_108" data-name="Groupe 108" transform="translate(77.124)">
        <path id="Tracé_78" data-name="Tracé 78" d="M1295.775,296.379c.338.194.639.426.971.629l8.423-14.587-1-.578Z" transform="translate(-1295.775 -281.843)" fill="#c28f2d"/>
      </g>
    </g>
    <g id="Groupe_112" data-name="Groupe 112" transform="translate(1348.195 307.077)">
      <g id="Groupe_110" data-name="Groupe 110" transform="translate(0 140.844)">
        <path id="Tracé_79" data-name="Tracé 79" d="M1287.135,311.543l-6.6,14.161,1.046.491,6.627-14.217C1287.856,311.821,1287.49,311.71,1287.135,311.543Z" transform="translate(-1280.536 -311.543)" fill="#c28f2d"/>
      </g>
      <g id="Groupe_111" data-name="Groupe 111" transform="translate(65.188)">
        <path id="Tracé_80" data-name="Tracé 80" d="M1294.621,296.316c.352.167.671.37,1.023.541l7.118-15.263-1.051-.486Z" transform="translate(-1294.621 -281.109)" fill="#c28f2d"/>
      </g>
    </g>
    <g id="Groupe_115" data-name="Groupe 115" transform="translate(1355.067 304.268)">
      <g id="Groupe_113" data-name="Groupe 113" transform="translate(0 146.032)">
        <path id="Tracé_81" data-name="Tracé 81" d="M1287.366,312.057l-5.346,14.684,1.088.4,5.363-14.74C1288.1,312.275,1287.731,312.191,1287.366,312.057Z" transform="translate(-1282.02 -312.057)" fill="#c28f2d"/>
      </g>
      <g id="Groupe_114" data-name="Groupe 114" transform="translate(52.758)">
        <path id="Tracé_82" data-name="Tracé 82" d="M1293.42,296.269c.366.134.7.315,1.064.454l5.761-15.827-1.088-.393Z" transform="translate(-1293.42 -280.502)" fill="#c28f2d"/>
      </g>
    </g>
    <g id="Groupe_118" data-name="Groupe 118" transform="translate(1362.166 302.07)">
      <g id="Groupe_116" data-name="Groupe 116" transform="translate(0 150.114)">
        <path id="Tracé_83" data-name="Tracé 83" d="M1287.6,312.464l-4.045,15.092,1.115.3,4.063-15.147C1288.353,312.612,1287.975,312.566,1287.6,312.464Z" transform="translate(-1283.555 -312.464)" fill="#c28f2d"/>
      </g>
      <g id="Groupe_117" data-name="Groupe 117" transform="translate(39.925)">
        <path id="Tracé_84" data-name="Tracé 84" d="M1292.181,296.238c.375.1.727.25,1.1.356l4.36-16.267-1.12-.3Z" transform="translate(-1292.181 -280.027)" fill="#c28f2d"/>
      </g>
    </g>
    <g id="Groupe_121" data-name="Groupe 121" transform="translate(1369.437 300.506)">
      <g id="Groupe_119" data-name="Groupe 119" transform="translate(0 153.048)">
        <path id="Tracé_85" data-name="Tracé 85" d="M1287.843,312.76l-2.717,15.388,1.143.2,2.722-15.443C1288.605,312.843,1288.226,312.825,1287.843,312.76Z" transform="translate(-1285.125 -312.76)" fill="#c28f2d"/>
      </g>
      <g id="Groupe_120" data-name="Groupe 120" transform="translate(26.786)">
        <path id="Tracé_86" data-name="Tracé 86" d="M1290.913,296.215c.385.069.749.185,1.129.259l2.925-16.582-1.139-.2Z" transform="translate(-1290.913 -279.689)" fill="#c28f2d"/>
      </g>
    </g>
    <g id="Groupe_124" data-name="Groupe 124" transform="translate(1376.828 299.585)">
      <g id="Groupe_122" data-name="Groupe 122" transform="translate(0 154.816)">
        <path id="Tracé_87" data-name="Tracé 87" d="M1288.083,312.943l-1.36,15.564,1.152.1,1.37-15.624C1288.855,312.957,1288.476,312.976,1288.083,312.943Z" transform="translate(-1286.722 -312.943)" fill="#c28f2d"/>
      </g>
      <g id="Groupe_123" data-name="Groupe 123" transform="translate(13.444)">
        <path id="Tracé_88" data-name="Tracé 88" d="M1289.627,296.206c.389.033.763.12,1.148.157l1.467-16.776-1.152-.1Z" transform="translate(-1289.627 -279.49)" fill="#c28f2d"/>
      </g>
    </g>
    <g id="Groupe_127" data-name="Groupe 127" transform="translate(1384.278 299.307)">
      <g id="Groupe_125" data-name="Groupe 125" transform="translate(0 155.348)">
        <path id="Tracé_89" data-name="Tracé 89" d="M1288.333,313.058v15.624h1.157V313C1289.1,313.007,1288.726,313.058,1288.333,313.058Z" transform="translate(-1288.333 -312.998)" fill="#c28f2d"/>
      </g>
      <g id="Groupe_126" data-name="Groupe 126">
        <path id="Tracé_90" data-name="Tracé 90" d="M1288.333,296.211c.393,0,.768.056,1.157.06V279.43h-1.157Z" transform="translate(-1288.333 -279.43)" fill="#c28f2d"/>
      </g>
    </g>
    <g id="Groupe_130" data-name="Groupe 130" transform="translate(1376.828 299.585)">
      <g id="Groupe_128" data-name="Groupe 128" transform="translate(13.546 154.756)">
        <path id="Tracé_91" data-name="Tracé 91" d="M1289.65,313.088l1.36,15.568,1.152-.1L1290.8,312.93C1290.408,312.972,1290.038,313.055,1289.65,313.088Z" transform="translate(-1289.65 -312.93)" fill="#c28f2d"/>
      </g>
      <g id="Groupe_129" data-name="Groupe 129">
        <path id="Tracé_92" data-name="Tracé 92" d="M1288.184,296.308c.389-.037.773-.014,1.157-.042l-1.467-16.776-1.152.1Z" transform="translate(-1286.722 -279.49)" fill="#c28f2d"/>
      </g>
    </g>
    <g id="Groupe_133" data-name="Groupe 133" transform="translate(1369.437 300.506)">
      <g id="Groupe_131" data-name="Groupe 131" transform="translate(26.99 152.988)">
        <path id="Tracé_93" data-name="Tracé 93" d="M1290.957,313.006l2.712,15.387,1.138-.2-2.721-15.448C1291.7,312.821,1291.342,312.941,1290.957,313.006Z" transform="translate(-1290.957 -312.747)" fill="#c28f2d"/>
      </g>
      <g id="Groupe_132" data-name="Groupe 132">
        <path id="Tracé_94" data-name="Tracé 94" d="M1288.041,296.419c.384-.069.763-.083,1.148-.143l-2.921-16.586-1.143.2Z" transform="translate(-1285.125 -279.689)" fill="#c28f2d"/>
      </g>
    </g>
    <g id="Groupe_136" data-name="Groupe 136" transform="translate(1362.166 302.07)">
      <g id="Groupe_134" data-name="Groupe 134" transform="translate(40.221 150.058)">
        <path id="Tracé_95" data-name="Tracé 95" d="M1292.245,312.808l4.045,15.091,1.12-.3-4.059-15.147C1292.976,312.559,1292.625,312.707,1292.245,312.808Z" transform="translate(-1292.245 -312.452)" fill="#c28f2d"/>
      </g>
      <g id="Groupe_135" data-name="Groupe 135">
        <path id="Tracé_96" data-name="Tracé 96" d="M1287.9,296.539c.379-.1.759-.148,1.134-.245l-4.36-16.267-1.115.3Z" transform="translate(-1283.555 -280.027)" fill="#c28f2d"/>
      </g>
    </g>
    <g id="Groupe_139" data-name="Groupe 139" transform="translate(1355.067 304.268)">
      <g id="Groupe_137" data-name="Groupe 137" transform="translate(53.151 145.981)">
        <path id="Tracé_97" data-name="Tracé 97" d="M1293.505,312.5l5.345,14.684,1.088-.4-5.364-14.735C1294.209,312.185,1293.871,312.361,1293.505,312.5Z" transform="translate(-1293.505 -312.046)" fill="#c28f2d"/>
      </g>
      <g id="Groupe_138" data-name="Groupe 138">
        <path id="Tracé_98" data-name="Tracé 98" d="M1287.759,296.667c.366-.134.741-.213,1.106-.343l-5.757-15.823-1.088.393Z" transform="translate(-1282.02 -280.502)" fill="#c28f2d"/>
      </g>
    </g>
    <g id="Groupe_142" data-name="Groupe 142" transform="translate(1348.195 307.077)">
      <g id="Groupe_140" data-name="Groupe 140" transform="translate(65.674 140.794)">
        <path id="Tracé_99" data-name="Tracé 99" d="M1294.727,312.073l6.6,14.161,1.051-.491-6.627-14.212C1295.4,311.7,1295.083,311.907,1294.727,312.073Z" transform="translate(-1294.727 -311.532)" fill="#c28f2d"/>
      </g>
      <g id="Groupe_141" data-name="Groupe 141">
        <path id="Tracé_100" data-name="Tracé 100" d="M1287.626,296.807c.356-.167.717-.278,1.073-.435l-7.117-15.263-1.046.486Z" transform="translate(-1280.536 -281.109)" fill="#c28f2d"/>
      </g>
    </g>
    <g id="Groupe_145" data-name="Groupe 145" transform="translate(1341.6 310.474)">
      <g id="Groupe_143" data-name="Groupe 143" transform="translate(77.702 134.537)">
        <path id="Tracé_101" data-name="Tracé 101" d="M1295.9,311.543l7.812,13.532,1-.578-7.845-13.583C1296.539,311.113,1296.238,311.349,1295.9,311.543Z" transform="translate(-1295.9 -310.914)" fill="#c28f2d"/>
      </g>
      <g id="Groupe_144" data-name="Groupe 144">
        <path id="Tracé_102" data-name="Tracé 102" d="M1287.5,296.958c.338-.194.69-.342,1.032-.528l-8.422-14.587-1,.578Z" transform="translate(-1279.11 -281.843)" fill="#c28f2d"/>
      </g>
    </g>
    <g id="Groupe_148" data-name="Groupe 148" transform="translate(1335.334 314.44)">
      <g id="Groupe_146" data-name="Groupe 146" transform="translate(89.137 127.257)">
        <path id="Tracé_103" data-name="Tracé 103" d="M1297.018,310.906l8.964,12.8.949-.662-9-12.847C1297.619,310.425,1297.337,310.684,1297.018,310.906Z" transform="translate(-1297.018 -310.198)" fill="#c28f2d"/>
      </g>
      <g id="Groupe_147" data-name="Groupe 147">
        <path id="Tracé_104" data-name="Tracé 104" d="M1287.382,297.111c.319-.222.657-.4.981-.616l-9.658-13.8-.949.666Z" transform="translate(-1277.756 -282.7)" fill="#c28f2d"/>
      </g>
    </g>
    <g id="Groupe_151" data-name="Groupe 151" transform="translate(1329.447 318.943)">
      <g id="Groupe_149" data-name="Groupe 149" transform="translate(99.892 119.006)">
        <path id="Tracé_105" data-name="Tracé 105" d="M1298.069,310.175l10.043,11.968.889-.74-10.084-12.014C1298.625,309.643,1298.37,309.925,1298.069,310.175Z" transform="translate(-1298.069 -309.388)" fill="#c28f2d"/>
      </g>
      <g id="Groupe_150" data-name="Groupe 150">
        <path id="Tracé_106" data-name="Tracé 106" d="M1287.272,297.274c.3-.255.62-.458.921-.7l-10.824-12.9-.885.745Z" transform="translate(-1276.484 -283.673)" fill="#c28f2d"/>
      </g>
    </g>
    <g id="Groupe_154" data-name="Groupe 154" transform="translate(1323.981 323.946)">
      <g id="Groupe_152" data-name="Groupe 152" transform="translate(109.889 109.847)">
        <path id="Tracé_107" data-name="Tracé 107" d="M1299.048,309.351,1310.1,320.4l.82-.814-11.089-11.093C1299.553,308.772,1299.327,309.073,1299.048,309.351Z" transform="translate(-1299.048 -308.49)" fill="#c28f2d"/>
      </g>
      <g id="Groupe_153" data-name="Groupe 153">
        <path id="Tracé_108" data-name="Tracé 108" d="M1287.169,297.439c.273-.278.579-.5.856-.778l-11.907-11.908-.814.819Z" transform="translate(-1275.303 -284.754)" fill="#c28f2d"/>
      </g>
    </g>
    <g id="Groupe_157" data-name="Groupe 157" transform="translate(1318.979 329.411)">
      <g id="Groupe_155" data-name="Groupe 155" transform="translate(119.047 99.855)">
        <path id="Tracé_109" data-name="Tracé 109" d="M1299.946,308.438l11.968,10.043.745-.884-12.014-10.084C1300.4,307.818,1300.2,308.137,1299.946,308.438Z" transform="translate(-1299.946 -307.512)" fill="#c28f2d"/>
      </g>
      <g id="Groupe_156" data-name="Groupe 156">
        <path id="Tracé_110" data-name="Tracé 110" d="M1287.073,297.611c.255-.3.537-.555.792-.852l-12.9-10.825-.74.889Z" transform="translate(-1274.222 -285.935)" fill="#c28f2d"/>
      </g>
    </g>
    <g id="Groupe_160" data-name="Groupe 160" transform="translate(1314.476 335.298)">
      <g id="Groupe_158" data-name="Groupe 158" transform="translate(127.303 89.105)">
        <path id="Tracé_111" data-name="Tracé 111" d="M1300.757,307.442l12.8,8.964.667-.949-12.847-9C1301.155,306.785,1300.98,307.123,1300.757,307.442Z" transform="translate(-1300.757 -306.461)" fill="#c28f2d"/>
      </g>
      <g id="Groupe_159" data-name="Groupe 159">
        <path id="Tracé_112" data-name="Tracé 112" d="M1286.994,297.782c.227-.319.485-.6.713-.912l-13.8-9.663-.661.949Z" transform="translate(-1273.25 -287.207)" fill="#c28f2d"/>
      </g>
    </g>
    <g id="Groupe_163" data-name="Groupe 163" transform="translate(1310.51 341.564)">
      <g id="Groupe_161" data-name="Groupe 161" transform="translate(134.588 77.674)">
        <path id="Tracé_113" data-name="Tracé 113" d="M1301.475,306.377l13.531,7.812.579-1L1302,305.345C1301.812,305.688,1301.669,306.039,1301.475,306.377Z" transform="translate(-1301.475 -305.345)" fill="#c28f2d"/>
      </g>
      <g id="Groupe_162" data-name="Groupe 162">
        <path id="Tracé_114" data-name="Tracé 114" d="M1286.924,297.956c.2-.338.43-.639.629-.972l-14.582-8.423-.578,1Z" transform="translate(-1272.393 -288.561)" fill="#c28f2d"/>
      </g>
    </g>
    <g id="Groupe_166" data-name="Groupe 166" transform="translate(1307.108 348.159)">
      <g id="Groupe_164" data-name="Groupe 164" transform="translate(140.849 65.656)">
        <path id="Tracé_115" data-name="Tracé 115" d="M1302.092,305.242l14.161,6.6.486-1.046-14.212-6.627C1302.37,304.525,1302.254,304.89,1302.092,305.242Z" transform="translate(-1302.092 -304.173)" fill="#c28f2d"/>
      </g>
      <g id="Groupe_165" data-name="Groupe 165">
        <path id="Tracé_116" data-name="Tracé 116" d="M1286.869,298.126c.162-.352.37-.676.542-1.023l-15.263-7.118-.49,1.051Z" transform="translate(-1271.657 -289.986)" fill="#c28f2d"/>
      </g>
    </g>
    <g id="Groupe_169" data-name="Groupe 169" transform="translate(1304.299 355.031)">
      <g id="Groupe_167" data-name="Groupe 167" transform="translate(146.036 53.132)">
        <path id="Tracé_117" data-name="Tracé 117" d="M1302.606,304.058l14.685,5.345.393-1.088-14.735-5.364C1302.819,303.322,1302.741,303.693,1302.606,304.058Z" transform="translate(-1302.606 -302.952)" fill="#c28f2d"/>
      </g>
      <g id="Groupe_168" data-name="Groupe 168">
        <path id="Tracé_118" data-name="Tracé 118" d="M1286.822,298.3c.134-.366.309-.7.448-1.064l-15.823-5.762-.4,1.088Z" transform="translate(-1271.051 -291.471)" fill="#c28f2d"/>
      </g>
    </g>
    <g id="Groupe_172" data-name="Groupe 172" transform="translate(1302.106 362.13)">
      <g id="Groupe_170" data-name="Groupe 170" transform="translate(150.114 40.207)">
        <path id="Tracé_119" data-name="Tracé 119" d="M1303.013,302.827l15.092,4.045.3-1.115-15.147-4.063C1303.162,302.073,1303.111,302.452,1303.013,302.827Z" transform="translate(-1303.013 -301.693)" fill="#c28f2d"/>
      </g>
      <g id="Groupe_171" data-name="Groupe 171">
        <path id="Tracé_120" data-name="Tracé 120" d="M1286.787,298.466c.1-.375.25-.726.356-1.1l-16.267-4.359-.3,1.12Z" transform="translate(-1270.576 -293.005)" fill="#c28f2d"/>
      </g>
    </g>
    <g id="Groupe_175" data-name="Groupe 175" transform="translate(1300.542 369.405)">
      <g id="Groupe_173" data-name="Groupe 173" transform="translate(153.043 26.976)">
        <path id="Tracé_121" data-name="Tracé 121" d="M1303.308,301.554l15.388,2.717.2-1.143-15.448-2.721C1303.392,300.79,1303.378,301.17,1303.308,301.554Z" transform="translate(-1303.308 -300.406)" fill="#c28f2d"/>
      </g>
      <g id="Groupe_174" data-name="Groupe 174">
        <path id="Tracé_122" data-name="Tracé 122" d="M1286.765,298.631c.07-.384.185-.75.259-1.129l-16.587-2.925-.2,1.139Z" transform="translate(-1270.239 -294.577)" fill="#c28f2d"/>
      </g>
    </g>
    <g id="Groupe_178" data-name="Groupe 178" transform="translate(1299.616 376.796)">
      <g id="Groupe_176" data-name="Groupe 176" transform="translate(154.816 13.536)">
        <path id="Tracé_123" data-name="Tracé 123" d="M1303.491,300.256l15.568,1.365.1-1.152-15.624-1.37C1303.505,299.488,1303.529,299.867,1303.491,300.256Z" transform="translate(-1303.491 -299.099)" fill="#c28f2d"/>
      </g>
      <g id="Groupe_177" data-name="Groupe 177">
        <path id="Tracé_124" data-name="Tracé 124" d="M1286.759,298.789c.032-.389.116-.764.158-1.148l-16.776-1.467-.1,1.152Z" transform="translate(-1270.039 -296.174)" fill="#c28f2d"/>
      </g>
    </g>
  </g>
</svg>
