<svg xmlns="http://www.w3.org/2000/svg" width="41.293" height="42" viewBox="0 0 41.293 42">
  <g id="Groupe_26" data-name="Groupe 26" transform="translate(-143.767 -2.911)">
    <g id="Groupe_23" data-name="Groupe 23">
      <path id="Tracé_24" data-name="Tracé 24" d="M164.414,42.142A16.389,16.389,0,0,1,148.047,26.6" fill="none" stroke="#c28f2d" stroke-miterlimit="10" stroke-width="1"/>
      <path id="Tracé_25" data-name="Tracé 25" d="M148.047,24.911A16.389,16.389,0,0,1,164.414,9.366" fill="none" stroke="#c28f2d" stroke-miterlimit="10" stroke-width="1"/>
    </g>
    <path id="Tracé_26" data-name="Tracé 26" d="M164.414,7.6a18.159,18.159,0,0,1,17.971,15.556c-2.111,2.312-.522.57-2.363,2.6,1.841,2.029.252.287,2.363,2.6a18.158,18.158,0,0,1-35.942,0c2.111-2.312.521-.57,2.363-2.6-1.842-2.029-.252-.287-2.363-2.6A18.159,18.159,0,0,1,164.414,7.6Z" fill="none" stroke="#c28f2d" stroke-miterlimit="10" stroke-width="1"/>
    <g id="Groupe_24" data-name="Groupe 24">
      <path id="Tracé_27" data-name="Tracé 27" d="M149.99,43.911h27.1l4.1-5.6h-19.7V3.911h-11.2l2.9,3.8v30.7Z" fill="#c28f2d"/>
      <path id="Tracé_28" data-name="Tracé 28" d="M177.6,44.911H148.251l3.939-6.77V8.049l-3.921-5.138H162.49v34.4h20.671Zm-25.868-2h24.854l2.635-3.6H160.49V4.911h-8.179l1.879,2.462V38.68Z" fill="#c28f2d"/>
    </g>
    <rect id="Rectangle_303" data-name="Rectangle 303" width="1.642" height="1.642" transform="translate(145.282 24.593) rotate(45)" fill="none" stroke="#c28f2d" stroke-miterlimit="10" stroke-width="0.5"/>
    <rect id="Rectangle_304" data-name="Rectangle 304" width="1.642" height="1.642" transform="translate(183.546 24.593) rotate(45)" fill="none" stroke="#c28f2d" stroke-miterlimit="10" stroke-width="0.5"/>
    <g id="Groupe_25" data-name="Groupe 25">
      <path id="Tracé_29" data-name="Tracé 29" d="M164.3,42.142A16.389,16.389,0,0,0,180.666,26.6" fill="none" stroke="#c28f2d" stroke-miterlimit="10" stroke-width="1"/>
      <path id="Tracé_30" data-name="Tracé 30" d="M180.666,24.911A16.389,16.389,0,0,0,164.3,9.366" fill="none" stroke="#c28f2d" stroke-miterlimit="10" stroke-width="1"/>
    </g>
  </g>
</svg>
