<svg xmlns="http://www.w3.org/2000/svg" width="22.865" height="22.867" viewBox="0 0 22.865 22.867"><g transform="translate(-6 -5.998)"><path d="M22.5,7.088,8.253,21.337s-.005.009-.009.013a.472.472,0,0,0-.082.123c-.005.011-.011.021-.015.033s-.009.016-.012.025L6.022,28.246a.476.476,0,0,0,.6.6l6.712-2.117c.008,0,.014-.007.022-.01s.022-.01.034-.016a.471.471,0,0,0,.125-.083s.009,0,.013-.009l3.891-3.891,8.31-8.31,1.031,1.031-6.279,6.279a.476.476,0,1,0,.674.674l6.616-6.616a.476.476,0,0,0,0-.674L26.4,13.734l1.374-1.374A3.728,3.728,0,1,0,22.5,7.088ZM13.154,17.783,21.128,9.81l1.625,1.625L14.78,19.409ZM7.205,27.659l1.6-5.093L12.3,26.054ZM13.188,25.6l-1.962-1.962L9.263,21.674l3.218-3.217,3.925,3.925Zm3.891-3.891-1.626-1.626,7.973-7.974,1.626,1.626ZM27.1,11.687l-1.374,1.374L21.8,9.136l1.374-1.374a2.781,2.781,0,0,1,3.928,0,2.78,2.78,0,0,1,0,3.925Z" transform="translate(0 0)" fill="#d0a85c"/></g></svg>