<svg xmlns="http://www.w3.org/2000/svg" width="22.865" height="24.499" viewBox="0 0 22.865 24.499"><g transform="translate(-4 -2)"><g transform="translate(4 2)"><path d="M4.2,20.09l11.024,6.353h0a.405.405,0,0,0,.407,0L26.661,20.09a.407.407,0,0,0,.2-.354V8.762h0a.408.408,0,0,0-.2-.354l-4.851-2.8h0L19.781,4.444h0L15.636,2.055a.406.406,0,0,0-.407,0L4.2,8.408a.408.408,0,0,0-.2.354H4V19.736A.407.407,0,0,0,4.2,20.09ZM4.817,9.468l3.25,1.874v2.572a.409.409,0,0,0,.2.35l2.042,1.225a.408.408,0,0,0,.619-.35v-2.15l4.1,2.362V25.384L4.817,19.5ZM8.883,11.39l7.789-4.459,2.9-1.663,1.212.7-10.394,6.01-.075.041a.409.409,0,0,0-.212.358v2.043l-1.225-.735V11.39ZM19.478,7.667l2.127-1.23,4.034,2.325L15.433,14.644,11.415,12.33ZM26.049,19.5,15.841,25.384V15.352L26.049,9.469ZM18.757,4.8,8.517,10.659l-3.291-1.9L15.433,2.879Z" transform="translate(-4 -2)" fill="#d0a85c"/><path d="M16.851,46.547l-5.614-3.235a.408.408,0,0,0-.407.708l5.614,3.235a.408.408,0,1,0,.407-.708Z" transform="translate(-7.92 -26.411)" fill="#d0a85c"/></g></g></svg>